<svg width="60" height="60" fill="none" xmlns="http://www.w3.org/2000/svg">
    <path d="M43.424 31.837c.075-.6.131-1.2.131-1.837s-.056-1.238-.131-1.837l3.956-3.094a.946.946 0 0 0 .225-1.2l-3.75-6.488a.937.937 0 0 0-.825-.468.876.876 0 0 0-.319.056l-4.669 1.875a13.696 13.696 0 0 0-3.168-1.838l-.713-4.969a.914.914 0 0 0-.919-.787h-7.5a.914.914 0 0 0-.918.787l-.713 4.97c-1.143.468-2.194 1.105-3.169 1.837l-4.668-1.875a1.062 1.062 0 0 0-.338-.056.929.929 0 0 0-.806.468l-3.75 6.488a.924.924 0 0 0 .225 1.2l3.956 3.094A14.87 14.87 0 0 0 15.43 30c0 .619.056 1.238.131 1.837l-3.956 3.094a.946.946 0 0 0-.225 1.2l3.75 6.488c.169.3.487.468.825.468a.875.875 0 0 0 .319-.056l4.668-1.875c.976.75 2.026 1.369 3.17 1.838l.712 4.968c.056.45.45.788.918.788h7.5a.914.914 0 0 0 .92-.788l.712-4.968c1.143-.469 2.194-1.106 3.168-1.838l4.67 1.875c.112.038.224.056.337.056a.929.929 0 0 0 .806-.468l3.75-6.488a.946.946 0 0 0-.225-1.2l-3.956-3.093zm-3.713-3.206c.075.581.094.975.094 1.369s-.038.806-.094 1.369l-.262 2.118 1.669 1.313 2.024 1.575-1.312 2.269-2.381-.956-1.95-.788-1.688 1.275c-.806.6-1.575 1.05-2.343 1.369l-1.988.806-.3 2.119L30.805 45H28.18l-.356-2.531-.3-2.119-1.988-.806a10.64 10.64 0 0 1-2.306-1.331L21.524 36.9l-1.988.806-2.381.956-1.313-2.268 2.025-1.575 1.67-1.313-.263-2.119c-.056-.58-.094-1.012-.094-1.387s.038-.806.094-1.369l.262-2.119-1.669-1.312-2.025-1.575 1.313-2.269 2.381.956 1.95.788 1.688-1.275c.806-.6 1.575-1.05 2.343-1.369l1.988-.806.3-2.119L28.18 15h2.606l.356 2.531.3 2.119 1.988.806a10.64 10.64 0 0 1 2.306 1.332l1.707 1.312 1.987-.806 2.381-.957 1.313 2.27-2.007 1.593-1.668 1.313.262 2.118zM29.493 22.5a7.498 7.498 0 0 0-7.5 7.5c0 4.144 3.356 7.5 7.5 7.5 4.143 0 7.5-3.356 7.5-7.5s-3.357-7.5-7.5-7.5zm0 11.25a3.761 3.761 0 0 1-3.75-3.75 3.761 3.761 0 0 1 3.75-3.75 3.761 3.761 0 0 1 3.75 3.75 3.761 3.761 0 0 1-3.75 3.75z" fill="#666"/>
</svg>
