<svg width="60" height="60" fill="none" xmlns="http://www.w3.org/2000/svg">
    <path d="M43.922 18.666H24V39.71c0 2.018 4.462 4.48 9.961 4.48 5.499 0 9.961-2.462 9.961-4.48a.7.7 0 0 0 0-.14V18.667z" fill="#fff" stroke="#4D4D4D" stroke-width="2.5" stroke-linecap="round" stroke-linejoin="round"/>
    <path d="M43.922 18.703c0 2.018-4.462 3.657-9.961 3.657-5.499 0-9.961-1.639-9.961-3.657S28.462 15 33.961 15c5.499 0 9.961 1.676 9.961 3.703z" fill="#fff" stroke="#4D4D4D" stroke-width="2.5" stroke-linecap="round" stroke-linejoin="round"/>
    <path d="M43.922 35.422v-3.953s-.12.139-.287.305a9.462 9.462 0 0 1-11.46 1.445 23.834 23.834 0 0 0-3.546-1.74c-1.805-.677-3.583-.927-4.555 0v8.23c0 2.017 4.462 3.656 9.961 3.656 5.5 0 9.961-1.639 9.961-3.657a.716.716 0 0 0 0-.139l-.074-4.147z" fill="#4D4D4D"/>
    <path d="M17.904 8H1.096C.491 8 0 8.672 0 9.5 0 10.33.49 11 1.096 11h16.808C18.509 11 19 10.33 19 9.5c0-.828-.49-1.5-1.096-1.5z" fill="#525252"/>
    <path d="M11 17.904V1.096C11 .491 10.328 0 9.5 0S8 .49 8 1.096v16.808C8 18.509 8.672 19 9.5 19s1.5-.49 1.5-1.096z" fill="#525252"/>
</svg>
